<?xml version="1.0" encoding="utf-8"?>
<!-- Generator: Adobe Illustrator 28.3.0, SVG Export Plug-In . SVG Version: 6.00 Build 0)  -->
<svg version="1.1" id="Capa_1" xmlns="http://www.w3.org/2000/svg" xmlns:xlink="http://www.w3.org/1999/xlink" x="0px" y="0px"
	 viewBox="0 0 63 310.1" style="enable-background:new 0 0 63 310.1;" xml:space="preserve">
<style type="text/css">
	.st0{fill:#4A9ED7;}
	.st1{fill:#FFFFFF;}
</style>
<polygon class="st0" points="0,310.2 63.7,310.2 63.7,0.7 0,128.8 "/>
<path class="st1" d="M18.2,294.2c0-9.6,0-19.2,0-28.8c0.2-0.5,0.5-0.9,1-1c9.6,0,19.2,0,28.8,0c0.8,0.3,1,0.8,1,1.6
	c0,9.3,0,18.5,0,27.8c0,0.9-0.5,1.4-1.4,1.4c-9.3,0-18.5,0-27.8,0C19,295.3,18.5,295,18.2,294.2z M44.5,290.7c0-0.1,0-0.2,0-0.3
	c0-2.6,0-5.2,0-7.8c0-1.1-0.1-2.2-0.3-3.2c-0.3-1.4-1-2.5-2.3-3.1c-0.9-0.4-1.8-0.6-2.8-0.6c-1.8,0-3.4,0.6-4.4,2.2c0,0,0,0.1,0,0.1
	c0,0-0.1,0-0.1-0.1c0-0.6,0-1.3,0-1.9c-1.5,0-2.9,0-4.4,0c0,4.9,0,9.8,0,14.7c1.5,0,3,0,4.5,0c0-0.1,0-0.3,0-0.4c0-2.2,0-4.5,0-6.7
	c0-0.8,0-1.6,0.3-2.4c0.3-0.7,0.8-1.3,1.6-1.4c0.4-0.1,0.7-0.1,1.1-0.1c0.9,0,1.5,0.5,1.8,1.3c0.2,0.7,0.3,1.4,0.3,2.1
	c0,2.4,0,4.8,0,7.2c0,0.1,0,0.3,0,0.4C41.4,290.7,42.9,290.7,44.5,290.7z M22.8,276c0,4.9,0,9.8,0,14.7c1.5,0,3,0,4.5,0
	c0-4.9,0-9.8,0-14.7C25.8,276,24.3,276,22.8,276z M27.7,271.4c0-1.5-1.2-2.7-2.6-2.7c-1.4,0-2.6,1.2-2.7,2.6c0,1.5,1.2,2.7,2.7,2.7
	C26.5,274,27.7,272.8,27.7,271.4z"/>
</svg>
