<?xml version="1.0" encoding="utf-8"?>
<!-- Generator: Adobe Illustrator 28.3.0, SVG Export Plug-In . SVG Version: 6.00 Build 0)  -->
<svg version="1.1" id="Capa_1" xmlns="http://www.w3.org/2000/svg" xmlns:xlink="http://www.w3.org/1999/xlink" x="0px" y="0px"
	 viewBox="0 0 700 287.8" style="enable-background:new 0 0 700 287.8;" xml:space="preserve">
<style type="text/css">
	.st0{fill:#4A9ED7;}
	.st1{fill:#7C7C7C;}
</style>
<g>
	<g>
		<polygon class="st0" points="232.7,103.8 245.6,92.7 245.6,159 232.6,159 232.6,103.8 		"/>
		<polygon class="st0" points="271.5,70.5 271.5,159 258.6,159 258.6,81.6 		"/>
		<polygon class="st0" points="297.5,48.3 297.5,159 284.5,159 284.5,59.4 		"/>
		<polygon class="st0" points="323.4,26.1 323.4,159 310.4,159 310.4,37.2 		"/>
		<polygon class="st0" points="440.1,103.8 440.1,159 420.6,159 420.6,112.5 355.8,57.3 355.8,159 336.4,159 336.4,15 		"/>
		<rect x="378.5" y="122" class="st0" width="19.5" height="37"/>
	</g>
	<g>
		<path class="st1" d="M56.9,197.6c-1.3-1.9-3.5-3.1-6.4-3.1c-3.1,0-6.6,1.8-6.6,5.9c0,4,3.3,5,6.8,6.1c4.4,1.5,9.2,2.9,9.2,9.1
			c0,6.2-5.2,9-10.2,9c-3.8,0-7.6-1.5-9.8-4.6l2.7-2c1.4,2.2,3.9,3.9,7.1,3.9c3.2,0,6.9-2,6.9-6c0-4.4-3.7-5.5-7.6-6.7
			c-4.1-1.3-8.4-3.1-8.4-8.7c0-6,5.4-8.6,9.9-8.6c4.2,0,7.3,1.8,8.8,3.8L56.9,197.6z"/>
		<path class="st1" d="M101.2,223.8H83.3c-9,0-15.8-6.7-15.8-16s6.7-16,15.8-16c9,0,15.7,6.7,15.7,16c0,5.5-2.5,10.3-7.3,13.1v0.1
			h9.4V223.8z M83.3,221c7.7,0,12.5-6.2,12.5-13.2s-4.8-13.2-12.5-13.2c-7.7,0-12.4,6.2-12.4,13.2S75.6,221,83.3,221z"/>
		<path class="st1" d="M108.8,212.2v-19.5h3.2v19.2c0,5,2.2,9.9,8.5,9.9s8.5-4.9,8.5-9.9v-19.2h3.2v19.5c0,5.2-2.3,12.4-11.7,12.4
			C111.1,224.6,108.8,217.4,108.8,212.2z"/>
		<path class="st1" d="M142.1,223.8h-3.5l13.5-31.2h3.1l13.4,31.2h-3.5l-3.4-8.2h-16.1L142.1,223.8z M146.7,212.7h13.7l-6.9-16.5
			L146.7,212.7z"/>
		<path class="st1" d="M179,223.8h-3.2v-31.2h9.2c6.2,0,10.6,2.2,10.6,8.3c0,4.6-3.4,7.5-8,8l9.1,14.8h-3.9l-8.6-14.6H179V223.8z
			 M179,206.5h5.5c5.1,0,8-1.8,8-5.5c0-4.1-3.1-5.6-7.8-5.6H179V206.5z"/>
		<path class="st1" d="M208,221h16.7v2.8h-19.8v-31.2h19.3v2.8H208v10.7h15.1v2.8H208V221z"/>
		<path class="st1" d="M250.3,223.8h-3.2v-31.2h18.8v2.8h-15.6v10.8h14.5v2.8h-14.5V223.8z"/>
		<path class="st1" d="M289.1,224.6c-9.3,0-16.2-6.9-16.2-16.4c0-9.5,7-16.4,16.2-16.4s16.2,6.9,16.2,16.4
			C305.3,217.7,298.4,224.6,289.1,224.6z M289.1,194.6c-8,0-12.9,6.3-12.9,13.6s4.9,13.6,12.9,13.6s12.9-6.3,12.9-13.6
			S297.1,194.6,289.1,194.6z"/>
		<path class="st1" d="M329.1,224.6c-9.3,0-16.2-6.9-16.2-16.4c0-9.5,7-16.4,16.2-16.4c9.3,0,16.2,6.9,16.2,16.4
			C345.4,217.7,338.4,224.6,329.1,224.6z M329.1,194.6c-8,0-12.9,6.3-12.9,13.6s4.9,13.6,12.9,13.6s12.9-6.3,12.9-13.6
			S337.1,194.6,329.1,194.6z"/>
		<path class="st1" d="M363.3,223.8h-3.2v-28.3h-10.4v-2.8h24v2.8h-10.4V223.8z"/>
		<path class="st1" d="M419.8,218.8c-2.1,3.1-6.1,5.8-11.7,5.8c-9.4,0-16.2-6.9-16.2-16.4c0-9.5,7-16.4,16.2-16.4
			c4.6,0,8.9,1.9,11.1,4.9l-2.6,1.9c-1.3-2-4.4-4.1-8.4-4.1c-8.1,0-12.9,6.3-12.9,13.6s4.9,13.6,12.9,13.6c3.6,0,7-1.4,9.2-4.6
			L419.8,218.8z"/>
		<path class="st1" d="M442,224.6c-9.3,0-16.2-6.9-16.2-16.4c0-9.5,7-16.4,16.2-16.4c9.3,0,16.2,6.9,16.2,16.4
			C458.2,217.7,451.2,224.6,442,224.6z M442,194.6c-8,0-12.9,6.3-12.9,13.6s4.9,13.6,12.9,13.6c8,0,12.9-6.3,12.9-13.6
			S450,194.6,442,194.6z"/>
		<path class="st1" d="M470.6,221h14.5v2.8h-17.7v-31.2h3.2V221z"/>
		<path class="st1" d="M491.3,212.2v-19.5h3.2v19.2c0,5,2.2,9.9,8.5,9.9s8.5-4.9,8.5-9.9v-19.2h3.2v19.5c0,5.2-2.3,12.4-11.7,12.4
			S491.3,217.4,491.3,212.2z"/>
		<path class="st1" d="M540.7,218.4L540.7,218.4l10.5-25.8h4.8v31.2h-3.2v-27.1h-0.1l-11.3,27.1h-1.7l-11.3-27.1h-0.1v27.1h-3.2
			v-31.2h4.8L540.7,218.4z"/>
		<path class="st1" d="M567,192.6h9.3c4.8,0,10,1.7,10,8c0,3.3-2.2,5.9-5.5,6.7v0.1c4,0.4,7,3.3,7,7.8c0,5.2-4.4,8.6-11.6,8.6H567
			V192.6z M570.1,206.3h6.4c3,0,6.6-1.3,6.6-5.5c0-4-3.4-5.5-7.5-5.5h-5.5V206.3z M570.1,221h5.9c4.6,0,8.6-1.7,8.6-6.1
			c0-4.1-2.9-6.1-8-6.1h-6.5V221z"/>
		<path class="st1" d="M597.4,212.2v-19.5h3.2v19.2c0,5,2.2,9.9,8.5,9.9s8.5-4.9,8.5-9.9v-19.2h3.2v19.5c0,5.2-2.3,12.4-11.7,12.4
			S597.4,217.4,597.4,212.2z"/>
		<path class="st1" d="M646.6,197.6c-1.3-1.9-3.5-3.1-6.4-3.1c-3.1,0-6.6,1.8-6.6,5.9c0,4,3.3,5,6.8,6.1c4.4,1.5,9.2,2.9,9.2,9.1
			c0,6.2-5.2,9-10.2,9c-3.8,0-7.6-1.5-9.8-4.6l2.7-2c1.4,2.2,3.9,3.9,7.1,3.9c3.2,0,6.9-2,6.9-6c0-4.4-3.7-5.5-7.6-6.7
			c-4.1-1.3-8.4-3.1-8.4-8.7c0-6,5.4-8.6,9.9-8.6c4.2,0,7.3,1.8,8.8,3.8L646.6,197.6z"/>
	</g>
	<g>
		<path class="st0" d="M46.5,266.9h-1.7v-16.7h4.9c3.3,0,5.7,1.2,5.7,4.4c0,2.5-1.8,4-4.3,4.3l4.9,7.9H54l-4.6-7.8h-2.8V266.9z
			 M46.5,257.6h2.9c2.7,0,4.3-1,4.3-3c0-2.2-1.7-3-4.2-3h-3V257.6z"/>
		<path class="st0" d="M73.6,265.4h8.9v1.5H71.9v-16.7h10.3v1.5h-8.6v5.7h8.1v1.5h-8.1V265.4z"/>
		<path class="st0" d="M98.6,266.9h-1.9l7.2-16.7h1.6l7.2,16.7h-1.9l-1.8-4.4h-8.6L98.6,266.9z M101.1,260.9h7.3l-3.7-8.9
			L101.1,260.9z"/>
		<path class="st0" d="M129.9,265.4h7.8v1.5h-9.5v-16.7h1.7V265.4z"/>
		<path class="st0" d="M173.1,265.4h8.9v1.5h-10.6v-16.7h10.3v1.5h-8.6v5.7h8.1v1.5h-8.1V265.4z"/>
		<path class="st0" d="M206.4,252.9c-0.7-1-1.9-1.7-3.4-1.7c-1.6,0-3.6,1-3.6,3.1c0,2.1,1.8,2.7,3.6,3.3c2.4,0.8,4.9,1.5,4.9,4.9
			c0,3.3-2.8,4.8-5.4,4.8c-2,0-4-0.8-5.3-2.5l1.5-1.1c0.7,1.2,2.1,2.1,3.8,2.1c1.7,0,3.7-1.1,3.7-3.2c0-2.3-2-2.9-4.1-3.6
			c-2.2-0.7-4.5-1.6-4.5-4.7c0-3.2,2.9-4.6,5.3-4.6c2.2,0,3.9,0.9,4.7,2L206.4,252.9z"/>
		<path class="st0" d="M229.4,266.9h-1.7v-15.2h-5.6v-1.5H235v1.5h-5.6V266.9z"/>
		<path class="st0" d="M248.9,266.9h-1.9l7.2-16.7h1.6l7.2,16.7h-1.9l-1.8-4.4h-8.6L248.9,266.9z M251.4,260.9h7.3l-3.7-8.9
			L251.4,260.9z"/>
		<path class="st0" d="M282.4,266.9h-1.7v-15.2h-5.6v-1.5H288v1.5h-5.6V266.9z"/>
		<path class="st0" d="M305.1,265.4h8.9v1.5h-10.6v-16.7h10.3v1.5h-8.6v5.7h8.1v1.5h-8.1V265.4z"/>
		<path class="st0" d="M349.1,250.2h5.5c4.2,0,8.8,2.8,8.8,8.3s-4.6,8.3-8.8,8.3h-5.5V250.2z M350.8,265.4h3.4c5,0,7.4-3.4,7.4-6.8
			s-2.4-6.8-7.4-6.8h-3.4V265.4z"/>
		<path class="st0" d="M381.6,265.4h8.9v1.5h-10.6v-16.7h10.3v1.5h-8.6v5.7h8.1v1.5h-8.1V265.4z"/>
		<path class="st0" d="M411.9,264.7L411.9,264.7l5.5-14.5h1.8l-6.4,16.7H411l-6.4-16.7h1.8L411.9,264.7z"/>
		<path class="st0" d="M436.1,265.4h8.9v1.5h-10.6v-16.7h10.3v1.5h-8.6v5.7h8.1v1.5h-8.1V265.4z"/>
		<path class="st0" d="M463,265.4h7.8v1.5h-9.5v-16.7h1.7V265.4z"/>
		<path class="st0" d="M493.3,267.3c-5,0-8.7-3.7-8.7-8.8c0-5.1,3.7-8.8,8.7-8.8c5,0,8.7,3.7,8.7,8.8
			C502,263.6,498.3,267.3,493.3,267.3z M493.3,251.3c-4.3,0-6.9,3.4-6.9,7.3s2.6,7.3,6.9,7.3c4.3,0,6.9-3.4,6.9-7.3
			S497.6,251.3,493.3,251.3z"/>
		<path class="st0" d="M518.5,250.2h4.7c3.4,0,5.6,1.5,5.6,4.4s-2.3,4.5-5.7,4.5h-3v7.7h-1.7V250.2z M520.1,257.7h2.9
			c2.6,0,4.1-1.1,4.1-3c0-2-1.5-3-4.1-3h-2.9V257.7z"/>
		<path class="st0" d="M553.3,264L553.3,264l5.6-13.8h2.6v16.7h-1.7v-14.5h0l-6,14.5h-0.9l-6-14.5h0v14.5h-1.7v-16.7h2.6L553.3,264z
			"/>
		<path class="st0" d="M580.5,265.4h8.9v1.5h-10.6v-16.7h10.3v1.5h-8.6v5.7h8.1v1.5h-8.1V265.4z"/>
		<path class="st0" d="M617.6,264.4L617.6,264.4l0-14.2h1.7v16.7h-2.1l-9.7-14.3h0v14.3h-1.7v-16.7h2.1L617.6,264.4z"/>
		<path class="st0" d="M642,266.9h-1.7v-15.2h-5.6v-1.5h12.9v1.5H642V266.9z"/>
	</g>
	<g>
		<rect x="42.1" y="236.1" class="st0" width="607.4" height="1.8"/>
	</g>
</g>
</svg>
