<?xml version="1.0" encoding="utf-8"?>
<!-- Generator: Adobe Illustrator 28.3.0, SVG Export Plug-In . SVG Version: 6.00 Build 0)  -->
<svg version="1.1" id="Capa_1" xmlns="http://www.w3.org/2000/svg" xmlns:xlink="http://www.w3.org/1999/xlink" x="0px" y="0px"
	 viewBox="0 0 200 200" style="enable-background:new 0 0 200 200;" xml:space="preserve">
<style type="text/css">
	.st0{fill:#4A9ED7;}
</style>
<path class="st0" d="M99.9,189.6c-4.8-7.7-9.4-14.9-14-22.2c-12.3-19.6-24.2-39.4-36.9-58.8c-21.6-32.9-9-72.1,18.7-89.2
	c37.9-23.4,88.4,1.2,93.7,45.4c1.8,15.1-1.4,29.1-9.4,41.9c-16.8,26.8-33.6,53.7-50.4,80.5C101.2,187.9,100.7,188.5,99.9,189.6z
	 M81,68.2c0,10.3,8.3,18.8,18.5,18.9c10.6,0.1,19.1-8.2,19.1-18.7c0.1-10.6-8.3-19.1-18.8-19.1C89.4,49.2,81,57.6,81,68.2z"/>
</svg>
