<?xml version="1.0" encoding="utf-8"?>
<!-- Generator: Adobe Illustrator 28.3.0, SVG Export Plug-In . SVG Version: 6.00 Build 0)  -->
<svg version="1.1" id="Capa_1" xmlns="http://www.w3.org/2000/svg" xmlns:xlink="http://www.w3.org/1999/xlink" x="0px" y="0px"
	 viewBox="0 0 200 200" style="enable-background:new 0 0 200 200;" xml:space="preserve">
<style type="text/css">
	.st0{fill:#4A9ED7;}
</style>
<g>
	<path class="st0" d="M152,169.8c-11.2,5.5-21.3,11.5-33.5,10.3c-5.1-0.5-10.2-2.1-14.9-4.3c-9.4-4.3-16.6-11.7-23.7-19
		C50.6,126.7,40,90,41.5,49c0.4-10.1,5.5-18,14.6-22.5c5.8-2.9,12.3-4.4,19.2-6.7c0.3,3.8,0.5,6.3,0.6,8.9
		c0.4,11.8,0.7,23.7,0.9,35.6c0,1.4-0.7,3.3-1.7,4.1c-6.5,5.1-8.8,11.7-5.1,18.9c8.4,16.3,17,32.5,25.9,48.5
		c4.3,7.7,8.9,8.9,17.4,6.1c1-0.3,2.6-0.4,3.3,0.2C128.2,151,139.8,160.1,152,169.8z"/>
	<path class="st0" d="M118.2,137.5c3.3-1.8,6.1-3.8,9.2-4.7c1.9-0.6,4.8,0,6.5,1.1c7.8,5.6,15.5,11.4,22.9,17.6
		c1.5,1.3,2.1,4.4,1.9,6.6c-0.2,2.9-1.7,5.7-2.8,9.3C143.1,157.3,130.8,147.6,118.2,137.5z"/>
	<path class="st0" d="M79.6,21.1c7.2-0.5,12.6,3.9,12.7,10.3c0.2,8.5,0.3,17.1,0.3,25.6c0,4.2-5.9,9.8-9.9,9.2
		c-0.9-0.2-2.1-2.3-2.2-3.5c-0.5-10.2-0.7-20.4-1-30.5C79.5,28.5,79.6,24.8,79.6,21.1z"/>
</g>
</svg>
