<?xml version="1.0" encoding="utf-8"?>
<!-- Generator: Adobe Illustrator 28.3.0, SVG Export Plug-In . SVG Version: 6.00 Build 0)  -->
<svg version="1.1" id="Capa_1" xmlns="http://www.w3.org/2000/svg" xmlns:xlink="http://www.w3.org/1999/xlink" x="0px" y="0px"
	 viewBox="0 0 200 200" style="enable-background:new 0 0 200 200;" xml:space="preserve">
<style type="text/css">
	.st0{fill:#4A9ED7;}
</style>
<path class="st0" d="M99.9,174.6c-41.7-0.4-74.7-33.3-74.5-74.8c0.1-41.6,33.2-74.4,74.7-74.4c41.7,0,74.7,33.2,74.6,74.7
	C174.5,141.7,141.4,174.3,99.9,174.6z M121.4,71.3c-14.5,5.1-28.4,5.1-42.4,0.2c-2.2,7.8-3.5,15.4-3.7,23.3c16.6,0,32.8,0,49.7,0
	C123.9,86.9,122.7,79.3,121.4,71.3z M125.1,105.2c-17.1,0-33.3,0-50.3,0c1.3,7.9,2.5,15.5,3.7,23.4c14.5-5.1,28.3-5.1,42.8,0
	C122.7,120.7,123.9,113.1,125.1,105.2z M64.7,94.7c1.5-9.2,2.9-18.1,4.4-27c-5.6-3.2-11.6-6.6-17.8-10.1
	c-9,10.6-14.4,22.8-15.6,37.1C45.6,94.7,55.3,94.7,64.7,94.7z M164.4,94.8c-1.3-14.4-6.6-26.6-15.6-37.1c-6.3,3.6-12.2,7-17.7,10.1
	c1.5,9,2.9,17.9,4.4,27C144.6,94.8,154.3,94.8,164.4,94.8z M131,132.2c5.6,3.2,11.6,6.6,17.7,10.1c9.1-10.6,14.4-22.8,15.6-37
	c-10,0-19.7,0-29,0C133.9,114.3,132.4,123.1,131,132.2z M35.7,105.1c1.3,14.3,6.6,26.6,15.6,37.1c6.2-3.5,12.2-7,17.7-10.1
	c-1.5-9.1-2.9-18-4.3-27C55.3,105.1,45.7,105.1,35.7,105.1z M117.4,61.9c-3.2-8.8-12.4-21.7-17.5-24.8C93.7,41.8,84.3,55.4,82.7,62
	C94.3,66.1,105.7,66.1,117.4,61.9z M82.5,138c4.2,9.6,9.7,18,17.6,25c7.9-7,13.3-15.4,17.5-25C105.8,133.8,94.2,133.8,82.5,138z
	 M58.8,50.4c4.9,2.8,9.5,5.3,13.7,7.7c4.3-7.1,8.3-13.9,12.4-20.8C75.4,39.5,66.9,43.8,58.8,50.4z M115.1,37.3
	c4.1,6.9,8.2,13.7,12.4,20.8c4.3-2.4,8.9-5,13.7-7.7C133.2,43.9,124.6,39.5,115.1,37.3z M72.4,141.8c-4.3,2.4-8.9,5-13.7,7.7
	c8.1,6.5,16.6,10.9,26.1,13.1C80.8,155.8,76.8,149.1,72.4,141.8z M115.1,162.7c9.5-2.2,18.1-6.5,26.1-13.1
	c-4.8-2.7-9.4-5.3-13.7-7.7C123.3,149,119.2,155.8,115.1,162.7z"/>
</svg>
